{"glyphs":{":":{"x_min":0,"x_max":316,"ha":316,"o":"m 98 0 l 122 121 l 242 121 l 218 0 z m 179 410 l 203 530 l 324 530 l 300 410 z"},"$":{"x_min":0,"x_max":632,"ha":632,"o":"m 285 -60 l 296 0 q 233 0 146 27 l 167 129 l 227 129 l 215 72 q 263 53 306 48 l 365 342 q 355 349 350 353 q 284 402 260 437 q 236 472 236 522 q 236 601 295 658 q 353 716 440 723 l 452 783 l 501 783 l 490 723 q 568 716 652 688 l 633 592 l 573 592 l 583 646 q 535 669 480 675 l 426 402 l 457 377 q 527 322 547 292 q 568 262 568 215 q 568 133 504 71 q 441 10 346 0 l 333 -60 z m 355 49 q 411 62 446 105 q 481 147 481 200 q 481 249 408 311 z m 383 435 l 430 673 q 382 662 350 623 q 318 583 318 536 q 318 492 383 435 z"},"?":{"x_min":0,"x_max":495,"ha":495,"o":"m 160 0 l 179 96 l 275 96 l 256 0 z m 198 193 l 199 199 q 209 250 226 277 q 243 304 295 356 l 336 397 q 401 461 426 506 q 452 551 452 601 q 452 642 423 667 q 395 693 349 693 q 324 693 297 685 q 270 676 240 660 l 224 608 l 169 608 l 188 705 q 237 723 284 732 q 330 741 374 741 q 456 741 505 703 q 554 666 554 603 q 554 510 444 421 l 416 397 q 354 347 332 312 q 309 276 294 207 l 291 193 z"},"<":{"x_min":0,"x_max":632,"ha":632,"o":"m 586 24 l 109 289 l 692 554 l 673 465 l 271 283 l 600 101 z"},"'":{"x_min":0,"x_max":229,"ha":229,"o":"m 211 506 l 175 771 l 295 771 l 259 506 z"},"=":{"x_min":0,"x_max":632,"ha":632,"o":"m 85 168 l 99 241 l 629 241 l 615 168 z m 119 337 l 133 410 l 663 410 l 648 337 z"},"a":{"x_min":0,"x_max":632,"ha":632,"o":"m 425 0 l 434 48 l 469 223 q 409 116 334 52 q 259 -12 195 -12 q 147 -12 119 21 q 90 54 90 110 q 90 269 202 406 q 313 542 443 542 q 457 542 479 539 q 500 536 530 530 l 626 530 l 531 48 l 603 48 l 593 0 z m 490 332 l 517 464 q 494 473 467 478 q 440 482 409 482 q 332 482 287 423 q 252 376 222 284 q 192 192 192 131 q 192 99 204 83 q 216 66 239 66 q 281 66 352 141 q 423 216 490 332 z"},"L":{"x_min":0,"x_max":566,"ha":566,"o":"m 548 0 l 42 0 l 52 48 l 124 48 l 249 675 l 176 675 l 186 723 l 433 723 l 423 675 l 351 675 l 228 54 l 499 54 l 517 145 l 577 145 z"},"3":{"x_min":0,"x_max":632,"ha":632,"o":"m 117 3 l 138 105 l 192 105 l 187 51 q 232 30 276 30 q 362 30 420 90 q 478 149 478 238 q 478 304 430 337 q 382 371 287 371 l 252 371 l 262 418 l 306 418 q 407 418 469 467 q 532 515 532 593 q 532 637 498 665 q 464 693 411 693 q 387 693 363 688 q 339 683 316 672 l 300 621 l 246 621 l 265 717 q 307 729 346 735 q 386 741 422 741 q 526 741 577 705 q 629 670 629 599 q 629 530 573 474 q 517 417 423 393 q 498 381 539 342 q 581 302 581 242 q 581 149 512 72 q 431 -18 277 -18 q 201 -18 117 3 z"},";":{"x_min":0,"x_max":316,"ha":316,"o":"m 69 -145 l 77 -103 q 122 -100 138 -21 l 143 0 l 98 0 l 122 121 l 242 121 l 220 12 q 191 -134 69 -145 z m 179 410 l 203 530 l 323 530 l 299 410 z"},"J":{"x_min":0,"x_max":416,"ha":416,"o":"m -31 -126 l -6 -3 l 54 -3 l 38 -84 q 69 -97 94 -97 q 146 -97 173 -61 q 200 -25 219 70 l 339 675 l 255 675 l 265 723 l 523 723 l 514 675 l 442 675 l 336 145 q 317 49 299 3 q 280 -43 246 -78 q 180 -145 66 -145 q 11 -145 -18 -132 z"},"V":{"x_min":0,"x_max":679,"ha":679,"o":"m 305 -12 l 179 675 l 137 675 l 146 723 l 366 723 l 356 675 l 284 675 l 384 128 l 696 675 l 624 675 l 633 723 l 810 723 l 800 675 l 758 674 l 367 -12 z"},"\"":{"x_min":0,"x_max":374,"ha":374,"o":"m 205 530 l 181 771 l 277 771 l 253 530 z m 374 530 l 349 771 l 446 771 l 421 530 z"},"7":{"x_min":0,"x_max":632,"ha":632,"o":"m 166 0 q 192 171 393 388 l 619 632 l 244 632 l 261 723 l 719 723 l 706 654 q 517 464 404 291 q 291 118 278 0 z"},"S":{"x_min":0,"x_max":546,"ha":546,"o":"m 60 18 l 85 147 l 140 147 l 131 75 q 202 30 270 30 q 336 30 383 73 q 430 116 430 177 q 430 246 341 317 l 295 354 q 181 446 181 534 q 181 624 252 682 q 324 741 432 741 q 512 741 624 705 l 599 581 l 545 581 l 553 650 q 489 693 425 693 q 363 693 322 657 q 280 621 280 567 q 280 496 375 419 l 423 380 q 534 291 534 198 q 534 101 457 42 q 379 -18 254 -18 q 175 -18 60 18 z"},"}":{"x_min":0,"x_max":334,"ha":334,"o":"m 35 -145 l 44 -96 q 149 -96 149 34 l 150 73 q 150 266 291 313 q 221 339 221 428 q 221 477 257 565 l 280 623 q 292 652 292 672 q 292 718 207 723 l 217 771 q 369 762 369 652 q 369 614 340 542 l 321 494 q 295 427 295 399 q 295 337 354 337 l 377 337 l 368 289 l 344 289 q 238 289 238 128 l 238 96 q 238 -54 160 -106 q 103 -145 35 -145 z"},"Z":{"x_min":0,"x_max":657,"ha":657,"o":"m 72 0 l 82 48 l 598 675 l 279 675 l 264 603 l 210 603 l 234 723 l 721 723 l 711 675 l 200 54 l 533 54 l 548 132 l 603 132 l 576 0 z"},"x":{"x_min":0,"x_max":533,"ha":533,"o":"m 59 0 q 56 15 56 21 q 56 67 83 103 q 111 139 216 230 l 266 275 l 172 482 l 130 482 l 140 530 l 258 530 l 350 328 l 373 346 q 466 419 466 477 q 466 502 448 530 l 542 530 q 551 512 551 495 q 551 452 518 412 q 485 372 393 302 l 369 285 l 476 48 l 519 48 l 509 0 l 395 0 l 291 230 l 250 192 q 188 135 167 104 q 146 73 146 39 q 146 21 160 0 z"},")":{"x_min":0,"x_max":334,"ha":334,"o":"m 208 771 q 354 661 354 429 q 354 259 267 108 q 180 -44 25 -145 l 35 -96 q 140 -7 190 113 q 223 193 247 308 q 271 423 271 501 q 271 644 198 723 z"},"&":{"x_min":0,"x_max":728,"ha":728,"o":"m 524 0 q 509 17 484 55 q 379 -18 280 -18 q 194 -18 136 40 q 78 98 78 184 q 78 357 307 436 q 285 503 285 545 q 285 626 345 684 q 405 741 490 741 q 550 741 586 707 q 623 673 623 617 q 623 486 410 415 q 460 281 539 152 q 612 228 629 340 l 557 340 l 566 389 l 770 389 l 760 340 l 700 340 q 660 205 565 115 l 611 48 l 671 48 l 662 0 z m 464 92 q 371 246 318 395 q 180 338 180 208 q 180 141 223 96 q 267 51 332 51 q 407 51 464 92 z m 397 454 q 539 513 539 629 q 539 661 523 677 q 508 693 477 693 q 436 693 406 656 q 376 618 376 566 q 376 518 397 454 z"},"_":{"x_min":0,"x_max":500,"ha":500,"o":"m 34 -72 l 48 0 l 452 0 l 438 -72 z"},"v":{"x_min":0,"x_max":581,"ha":581,"o":"m 239 -6 l 239 43 q 239 287 143 482 l 101 482 l 110 530 l 241 530 q 325 321 326 124 l 434 254 q 537 377 537 456 q 537 495 500 530 l 614 530 q 629 505 629 481 q 629 413 499 255 l 373 104 q 330 54 287 -6 z"},"O":{"x_min":0,"x_max":783,"ha":783,"o":"m 375 -19 q 255 -19 185 54 q 114 127 114 252 q 114 452 243 596 q 372 741 550 741 q 672 741 743 669 q 813 596 813 471 q 813 271 684 126 q 554 -19 375 -19 z m 394 30 q 513 30 609 167 q 705 304 705 477 q 705 573 656 633 q 608 693 530 693 q 413 693 318 555 q 223 417 223 246 q 223 151 271 90 q 318 30 394 30 z"},"(":{"x_min":0,"x_max":334,"ha":334,"o":"m 251 -145 q 105 -34 105 197 q 105 367 192 519 q 279 670 434 771 l 424 723 q 318 632 269 514 q 236 433 212 319 q 188 204 188 125 q 188 -17 261 -96 z"},"C":{"x_min":0,"x_max":715,"ha":715,"o":"m 647 45 q 500 -18 369 -18 q 251 -18 183 56 q 114 130 114 258 q 114 438 230 580 q 363 741 579 741 q 667 741 775 717 l 748 579 l 693 579 l 702 654 q 617 693 556 693 q 429 693 327 559 q 225 424 225 258 q 225 158 280 100 q 334 42 430 42 q 533 42 658 99 z"},"W":{"x_min":0,"x_max":900,"ha":900,"o":"m 222 -9 l 222 675 l 179 675 l 189 723 l 400 723 l 390 675 l 318 675 l 319 196 l 583 717 l 668 717 l 669 188 l 900 675 l 828 675 l 837 723 l 1012 723 l 1002 675 l 960 675 l 634 -9 l 577 -9 l 576 590 l 276 -9 z"},"A":{"x_min":0,"x_max":682,"ha":682,"o":"m 224 217 l 127 48 l 199 48 l 189 0 l 13 0 l 22 48 l 64 48 l 460 735 l 521 735 l 640 48 l 682 48 l 672 0 l 453 0 l 462 48 l 534 48 l 505 217 z m 252 265 l 497 265 l 439 590 z"},"f":{"x_min":0,"x_max":403,"ha":403,"o":"m 85 -193 l 219 482 l 147 482 l 157 530 l 229 530 q 273 669 329 726 q 385 783 477 783 q 505 783 532 779 q 558 774 583 765 l 562 660 l 501 660 l 512 711 q 499 723 484 729 q 469 735 453 735 q 410 735 379 692 q 349 648 332 562 l 325 530 l 476 530 l 466 482 l 316 482 l 182 -193 z"},"Q":{"x_min":0,"x_max":783,"ha":783,"o":"m 497 0 q 606 -114 795 -114 q 854 -114 917 -96 q 890 -152 864 -172 q 837 -193 792 -193 q 702 -193 605 -143 q 509 -93 444 -13 q 411 -18 380 -18 q 255 -18 185 54 q 114 125 114 252 q 114 452 243 596 q 372 741 550 741 q 672 741 743 669 q 813 596 813 471 q 813 311 724 179 q 635 47 497 0 z m 394 30 q 513 30 609 167 q 705 304 705 477 q 705 573 656 633 q 608 693 530 693 q 413 693 318 555 q 223 417 223 246 q 223 151 271 90 q 318 30 394 30 z"},"w":{"x_min":0,"x_max":826,"ha":826,"o":"m 225 -6 q 229 60 229 91 q 229 321 156 482 l 114 482 l 124 530 l 245 530 q 318 332 319 156 l 373 241 q 466 391 497 530 l 545 530 q 608 319 617 162 q 696 271 736 346 q 775 422 775 465 q 775 503 746 530 l 857 530 q 865 517 865 502 q 865 461 845 421 q 825 381 743 256 l 570 -6 l 521 -6 q 526 55 526 95 q 526 215 491 366 q 432 241 380 160 l 273 -6 z"},"-":{"x_min":0,"x_max":337,"ha":337,"o":"m 107 265 l 127 337 l 350 337 l 330 265 z"},"E":{"x_min":0,"x_max":584,"ha":584,"o":"m 539 0 l 42 0 l 52 48 l 124 48 l 249 675 l 176 675 l 186 723 l 662 723 l 638 603 l 583 603 l 598 675 l 351 675 l 296 397 l 471 397 l 482 458 l 531 458 l 497 289 l 449 289 l 461 350 l 286 350 l 228 54 l 496 54 l 511 132 l 565 132 z"},"s":{"x_min":0,"x_max":464,"ha":464,"o":"m 61 30 l 81 129 l 141 129 l 130 75 q 186 36 240 36 q 283 36 312 59 q 341 82 341 116 q 341 150 300 193 l 249 247 q 160 340 160 399 q 160 462 211 502 q 263 542 343 542 q 411 542 496 506 l 476 407 l 416 407 l 427 461 q 382 494 334 494 q 298 494 274 472 q 249 451 249 420 q 249 384 297 336 l 348 286 q 432 203 432 135 q 432 68 379 28 q 326 -12 239 -12 q 152 -12 61 30 z"},">":{"x_min":0,"x_max":632,"ha":632,"o":"m 214 554 l 692 289 l 109 24 l 128 113 l 530 295 l 201 478 z"},"l":{"x_min":0,"x_max":318,"ha":318,"o":"m 114 0 l 258 723 l 186 723 l 195 771 l 364 771 l 220 48 l 292 48 l 283 0 z"},"8":{"x_min":0,"x_max":632,"ha":632,"o":"m 313 388 q 233 443 233 524 q 233 614 304 678 q 375 741 475 741 q 558 741 608 705 q 658 668 658 607 q 658 544 616 496 q 575 448 476 398 q 613 317 613 209 q 613 115 532 49 q 451 -18 337 -18 q 239 -18 183 26 q 128 70 128 149 q 128 284 313 388 z m 352 359 q 221 280 221 157 q 221 100 256 65 q 291 30 349 30 q 416 30 463 75 q 510 121 510 186 q 510 232 478 268 q 445 304 352 359 z m 434 426 q 497 454 535 500 q 574 547 574 596 q 574 637 541 665 q 508 693 461 693 q 406 693 366 654 q 327 615 327 562 q 327 487 434 426 z"},"\\":{"x_min":0,"x_max":482,"ha":482,"o":"m 379 -145 l 159 771 l 228 771 l 447 -145 z"},"e":{"x_min":0,"x_max":542,"ha":542,"o":"m 517 84 q 371 -12 259 -12 q 184 -12 140 38 q 96 88 96 173 q 96 335 212 446 q 312 542 420 542 q 468 542 499 514 q 530 485 530 441 q 530 343 439 280 q 349 216 197 209 l 196 189 q 196 129 229 92 q 262 54 313 54 q 403 54 530 150 z m 200 249 q 310 258 373 304 q 437 350 437 419 q 437 451 421 466 q 406 482 376 482 q 315 482 266 417 q 217 352 200 249 z"},"b":{"x_min":0,"x_max":632,"ha":632,"o":"m 112 -12 l 258 723 l 186 723 l 195 771 l 364 771 l 306 482 l 271 307 q 331 414 406 478 q 481 542 545 542 q 594 542 622 509 q 650 476 650 420 q 650 262 538 125 q 427 -12 298 -12 q 267 -12 238 -6 q 209 0 183 12 z m 250 199 l 224 66 q 247 58 274 53 q 301 48 332 48 q 409 48 453 107 q 488 154 518 246 q 548 338 548 398 q 548 431 536 448 q 525 464 501 464 q 459 464 388 389 q 317 314 250 199 z"},"%":{"x_min":0,"x_max":699,"ha":699,"o":"m 25 -18 l 757 741 l 817 741 l 85 -18 z m 591 361 q 654 361 686 327 q 717 293 717 225 q 717 136 659 68 q 602 0 525 0 q 463 0 432 34 q 400 69 400 137 q 400 227 458 294 q 516 361 591 361 z m 472 128 q 472 88 487 68 q 502 48 532 48 q 578 48 611 103 q 645 157 645 231 q 645 272 630 292 q 615 313 584 313 q 538 313 505 259 q 472 204 472 128 z m 317 723 q 379 723 411 689 q 442 655 442 587 q 442 497 385 429 q 327 361 251 361 q 188 361 157 396 q 126 430 126 499 q 126 588 184 655 q 241 723 317 723 z m 198 489 q 198 450 213 430 q 228 410 258 410 q 304 410 337 464 q 370 518 370 593 q 370 634 355 654 q 340 675 310 675 q 264 675 231 620 q 198 566 198 489 z"},"m":{"x_min":0,"x_max":968,"ha":968,"o":"m 114 0 l 210 482 l 138 482 l 147 530 l 316 530 l 306 482 l 273 313 q 417 542 539 542 q 575 542 597 517 q 620 492 620 450 q 620 434 608 381 l 595 313 l 598 313 q 658 416 732 479 q 806 542 866 542 q 901 542 923 516 q 945 489 945 444 q 945 421 936 377 l 871 48 l 943 48 l 934 0 l 765 0 l 836 358 q 842 391 842 407 q 842 428 834 438 q 825 449 808 449 q 769 449 711 387 q 653 326 576 203 l 536 0 l 439 0 l 510 358 q 517 391 517 407 q 517 449 482 449 q 404 449 251 203 l 210 0 z"},"#":{"x_min":0,"x_max":632,"ha":632,"o":"m 89 0 l 191 217 l 79 217 l 91 277 l 220 277 l 299 446 l 125 446 l 137 506 l 327 506 l 429 723 l 496 723 l 394 506 l 518 506 l 621 723 l 687 723 l 585 506 l 697 506 l 685 446 l 557 446 l 477 277 l 651 277 l 639 217 l 449 217 l 347 0 l 280 0 l 382 217 l 258 217 l 156 0 z m 286 277 l 411 277 l 490 446 l 365 446 z"},",":{"x_min":0,"x_max":316,"ha":316,"o":"m 69 -145 l 77 -103 q 122 -100 138 -21 l 143 0 l 98 0 l 122 121 l 242 121 l 220 12 q 191 -134 69 -145 z"},"n":{"x_min":0,"x_max":655,"ha":655,"o":"m 114 0 l 210 482 l 138 482 l 147 530 l 316 530 l 306 482 l 272 313 q 336 419 410 480 q 484 542 548 542 q 585 542 609 516 q 633 491 633 450 q 633 428 624 381 l 557 48 l 629 48 l 620 0 l 452 0 l 527 382 q 530 398 530 412 q 530 433 521 444 q 512 455 493 455 q 401 455 250 200 l 210 0 z"},"h":{"x_min":0,"x_max":655,"ha":655,"o":"m 114 0 l 258 723 l 186 723 l 195 771 l 364 771 l 306 482 l 269 313 l 273 313 q 335 418 410 480 q 484 542 548 542 q 585 542 609 516 q 633 491 633 450 q 633 428 624 381 l 557 48 l 630 48 l 620 0 l 452 0 l 527 382 q 530 397 530 412 q 530 433 521 444 q 512 455 493 455 q 447 455 386 391 q 326 328 250 200 l 210 0 z"},"z":{"x_min":0,"x_max":617,"ha":617,"o":"m 87 0 l 97 48 l 483 482 l 240 482 l 227 416 l 173 416 l 196 530 l 606 530 l 597 482 l 217 54 l 493 54 l 504 114 l 559 114 l 536 0 z"},"B":{"x_min":0,"x_max":602,"ha":602,"o":"m 420 370 q 507 353 550 312 q 593 271 593 206 q 593 113 522 57 q 451 0 334 0 l 42 0 l 52 48 l 124 48 l 249 675 l 176 675 l 186 723 l 391 723 q 519 723 576 691 q 632 660 632 588 q 632 512 574 453 q 517 394 420 370 z m 226 48 l 244 48 q 322 48 359 57 q 396 65 427 91 q 487 141 487 214 q 487 273 438 311 q 388 350 310 350 l 286 350 z m 296 397 l 314 397 q 416 397 468 445 q 530 501 530 578 q 530 631 491 653 q 453 675 357 675 l 351 675 z"},"K":{"x_min":0,"x_max":673,"ha":673,"o":"m 290 368 l 226 48 l 298 48 l 289 0 l 42 0 l 51 48 l 124 48 l 249 675 l 176 675 l 186 723 l 433 723 l 423 675 l 351 675 l 290 368 l 616 675 l 543 675 l 553 723 l 751 723 l 741 678 l 698 678 l 396 393 l 625 48 l 674 48 l 664 0 l 433 0 l 442 48 l 502 48 z"},"R":{"x_min":0,"x_max":668,"ha":668,"o":"m 283 333 l 226 48 l 298 48 l 289 0 l 42 0 l 52 48 l 124 48 l 249 675 l 176 675 l 186 723 l 470 723 q 557 723 607 685 q 656 648 656 582 q 656 509 602 447 q 548 385 456 353 l 599 48 l 644 48 l 640 0 l 515 0 l 358 334 z m 293 382 l 324 382 q 423 382 485 437 q 548 492 548 577 q 548 626 512 650 q 476 675 403 675 l 351 675 z"},"T":{"x_min":0,"x_max":632,"ha":632,"o":"m 398 668 l 190 668 l 173 584 l 119 584 l 146 723 l 773 723 l 746 584 l 691 584 l 708 668 l 500 668 l 377 48 l 449 48 l 439 0 l 193 0 l 202 48 l 274 48 z"},"P":{"x_min":0,"x_max":574,"ha":574,"o":"m 276 301 l 226 48 l 298 48 l 289 0 l 42 0 l 52 48 l 124 48 l 249 675 l 176 675 l 186 723 l 461 723 q 560 723 609 687 q 658 651 658 580 q 658 459 565 380 q 473 301 331 301 z m 286 350 l 324 350 q 416 350 483 417 q 550 484 550 577 q 550 626 516 650 q 482 675 415 675 l 351 675 z"},"|":{"x_min":0,"x_max":253,"ha":253,"o":"m 62 -145 l 244 771 l 316 771 l 134 -145 z"},"t":{"x_min":0,"x_max":379,"ha":379,"o":"m 329 6 q 288 -12 251 -12 q 197 -12 164 20 q 130 52 130 105 q 130 126 136 155 l 200 476 l 130 476 l 142 530 l 210 530 l 230 626 l 331 650 l 307 530 l 431 530 l 420 476 l 296 476 l 229 141 q 225 117 225 98 q 225 73 239 61 q 252 48 280 48 q 311 48 341 66 z"},"M":{"x_min":0,"x_max":861,"ha":861,"o":"m 786 723 l 963 723 l 953 675 l 881 675 l 756 48 l 829 48 l 819 0 l 578 0 l 588 48 l 660 48 l 767 592 l 450 81 l 415 81 l 305 592 l 190 48 l 269 48 l 259 0 l 42 0 l 52 48 l 124 48 l 249 675 l 176 675 l 186 723 l 373 723 l 479 228 z"},"g":{"x_min":0,"x_max":624,"ha":624,"o":"m 93 -178 l 61 -55 q 183 -149 294 -149 q 353 -149 380 -118 q 407 -88 424 -3 l 434 48 l 469 223 q 409 116 334 52 q 259 -12 195 -12 q 147 -12 119 21 q 90 54 90 110 q 90 269 202 406 q 314 542 444 542 q 458 542 479 539 q 500 536 530 530 l 626 530 l 523 12 q 480 -205 239 -205 q 167 -205 93 -178 z m 491 332 l 517 464 q 494 473 467 478 q 440 482 409 482 q 332 482 288 423 q 253 376 223 284 q 193 192 193 131 q 193 99 205 83 q 216 66 239 66 q 282 66 353 141 q 423 216 491 332 z"},"j":{"x_min":0,"x_max":367,"ha":367,"o":"m -67 -187 l -46 -82 l 14 -82 l 3 -133 q 35 -151 62 -151 q 150 -151 182 9 l 276 482 l 204 482 l 214 530 l 382 530 l 291 70 q 236 -205 30 -205 q -13 -205 -67 -187 z m 305 626 l 324 723 l 421 723 l 401 626 z"},"i":{"x_min":0,"x_max":317,"ha":317,"o":"m 114 0 l 210 482 l 138 482 l 147 530 l 316 530 l 220 48 l 292 48 l 283 0 z m 239 626 l 258 723 l 354 723 l 335 626 z"},"y":{"x_min":0,"x_max":581,"ha":581,"o":"m 37 -193 q 74 -167 131 -111 q 188 -56 217 -19 l 239 10 q 239 293 143 482 l 101 482 l 110 530 l 244 530 q 279 441 302 325 q 325 210 326 125 l 437 260 q 538 382 538 458 q 538 497 500 530 l 613 530 q 629 504 629 479 q 629 420 513 274 l 281 -18 q 207 -110 160 -193 z"},"@":{"x_min":0,"x_max":870,"ha":870,"o":"m 607 22 q 524 -18 438 -18 q 297 -18 208 66 q 118 150 118 281 q 118 444 236 583 q 372 741 577 741 q 712 741 804 653 q 895 565 895 435 q 895 314 822 229 q 748 145 645 145 q 604 145 583 158 q 563 172 563 200 q 563 242 588 310 l 580 310 q 533 228 486 186 q 438 145 391 145 q 350 145 326 175 q 301 205 301 255 q 301 372 382 472 q 462 572 556 572 q 577 572 601 568 q 625 563 652 554 l 698 554 l 642 271 q 637 250 637 230 q 637 213 647 205 q 656 196 675 196 q 744 196 795 266 q 847 336 847 431 q 847 542 767 618 q 688 693 569 693 q 410 693 288 572 q 166 450 166 292 q 166 177 243 103 q 320 30 440 30 q 515 30 592 65 z m 595 400 l 615 503 q 588 514 567 519 q 545 524 530 524 q 462 524 418 455 q 374 386 374 281 q 374 243 385 224 q 396 205 419 205 q 452 205 501 259 q 549 313 595 400 z"},".":{"x_min":0,"x_max":316,"ha":316,"o":"m 98 0 l 122 121 l 242 121 l 218 0 z"},"p":{"x_min":0,"x_max":632,"ha":632,"o":"m 76 -193 l 210 482 l 138 482 l 147 530 l 316 530 l 307 482 l 272 307 q 332 414 407 478 q 482 542 546 542 q 594 542 623 509 q 651 476 651 420 q 651 262 539 125 q 427 -12 298 -12 q 269 -12 211 0 l 172 -193 z m 250 199 l 224 66 q 271 48 332 48 q 409 48 454 107 q 488 154 518 246 q 548 338 548 398 q 548 431 537 448 q 525 464 502 464 q 459 464 389 389 q 318 315 250 199 z"},"X":{"x_min":0,"x_max":644,"ha":644,"o":"m 75 48 l 344 364 l 214 675 l 171 675 l 181 723 l 407 723 l 397 675 l 325 675 l 423 442 l 615 675 l 543 675 l 553 723 l 737 723 l 728 675 l 686 675 l 452 392 l 596 48 l 638 48 l 628 0 l 403 0 l 412 48 l 484 48 l 372 313 l 147 48 l 219 48 l 209 0 l 24 0 l 33 48 z"},"*":{"x_min":0,"x_max":482,"ha":482,"o":"m 180 414 l 311 526 q 316 512 332 504 l 237 361 z m 199 624 l 322 568 q 308 557 308 534 l 164 553 z m 414 723 l 366 573 q 353 577 346 577 q 340 577 330 573 l 341 723 z m 535 548 l 382 530 q 383 537 383 542 q 383 552 373 565 l 522 620 z m 376 363 l 343 502 q 363 502 375 517 l 448 404 z"},"Y":{"x_min":0,"x_max":606,"ha":606,"o":"m 314 325 l 175 675 l 133 675 l 143 723 l 368 723 l 358 675 l 286 675 l 401 386 l 625 675 l 553 675 l 562 723 l 746 723 l 736 675 l 694 675 l 415 316 l 362 48 l 434 48 l 424 0 l 178 0 l 187 48 l 259 48 z"},"c":{"x_min":0,"x_max":511,"ha":511,"o":"m 467 46 q 360 -12 258 -12 q 182 -12 139 37 q 96 86 96 173 q 96 318 198 430 q 299 542 430 542 q 496 542 555 518 l 532 407 l 478 407 l 483 462 q 441 488 393 488 q 318 488 260 398 q 201 308 201 192 q 201 129 231 92 q 261 54 312 54 q 392 54 479 110 z"},"!":{"x_min":0,"x_max":289,"ha":289,"o":"m 96 0 l 115 96 l 212 96 l 192 0 z m 159 193 l 211 578 l 240 723 l 336 723 l 308 578 l 207 193 z"},"/":{"x_min":0,"x_max":482,"ha":482,"o":"m -23 -145 l 551 771 l 629 771 l 55 -145 z"},"[":{"x_min":0,"x_max":334,"ha":334,"o":"m 59 -145 l 241 771 l 434 771 l 424 723 l 315 723 l 152 -96 l 261 -96 l 251 -145 z"},"6":{"x_min":0,"x_max":632,"ha":632,"o":"m 261 401 q 351 470 438 470 q 519 470 569 421 q 620 372 620 294 q 620 171 533 76 q 446 -18 333 -18 q 236 -18 183 48 q 129 114 129 232 q 129 334 167 442 q 204 550 265 623 q 363 741 499 741 q 592 741 675 702 l 655 600 l 600 600 l 604 658 q 551 693 495 693 q 417 693 352 613 q 288 532 261 401 z m 225 200 q 225 124 258 77 q 291 30 345 30 q 415 30 469 110 q 523 190 523 292 q 523 348 494 382 q 464 416 414 416 q 340 416 280 359 q 225 309 225 200 z"},"r":{"x_min":0,"x_max":494,"ha":494,"o":"m 114 0 l 210 482 l 138 482 l 147 530 l 316 530 l 306 482 l 273 313 q 414 542 543 542 q 556 542 567 538 l 526 425 q 505 438 480 438 q 397 438 250 199 l 210 0 z"},"2":{"x_min":0,"x_max":632,"ha":632,"o":"m 99 0 l 109 54 q 163 164 322 288 l 371 327 q 550 466 550 575 q 550 628 516 661 q 482 693 425 693 q 394 693 361 681 q 328 669 293 645 l 273 575 l 219 575 l 242 690 q 295 716 349 729 q 402 741 456 741 q 549 741 601 699 q 653 656 653 580 q 653 456 511 359 l 458 324 q 320 230 270 180 q 219 130 217 84 l 552 84 l 535 0 z"},"{":{"x_min":0,"x_max":334,"ha":334,"o":"m 424 771 l 415 723 q 311 723 311 592 l 310 554 q 310 361 168 313 q 238 288 238 198 q 238 149 203 62 l 179 3 q 167 -25 167 -45 q 167 -92 252 -96 l 242 -145 q 90 -135 90 -26 q 90 12 119 84 l 138 132 q 164 200 164 227 q 164 289 105 289 l 82 289 l 91 337 l 115 337 q 222 337 222 499 l 221 530 q 221 652 269 709 q 317 766 424 771 z"},"9":{"x_min":0,"x_max":632,"ha":632,"o":"m 515 322 q 425 253 339 253 q 258 253 207 302 q 156 351 156 429 q 156 552 243 646 q 331 741 444 741 q 540 741 594 675 q 647 609 647 490 q 647 389 610 281 q 572 173 511 100 q 414 -18 277 -18 q 185 -18 102 21 l 122 123 l 176 123 l 172 65 q 225 30 281 30 q 360 30 424 111 q 488 191 515 322 z m 551 523 q 551 600 518 646 q 485 693 431 693 q 362 693 307 613 q 253 533 253 431 q 253 375 283 341 q 312 307 362 307 q 436 307 497 363 q 551 414 551 523 z"}," ":{"x_min":0,"x_max":316,"ha":316,"o":""},"I":{"x_min":0,"x_max":331,"ha":331,"o":"m 351 675 l 226 48 l 298 48 l 289 0 l 42 0 l 52 48 l 124 48 l 249 675 l 176 675 l 186 723 l 433 723 l 423 675 z"},"H":{"x_min":0,"x_max":771,"ha":771,"o":"m 286 350 l 226 48 l 298 48 l 289 0 l 42 0 l 52 48 l 124 48 l 249 675 l 176 675 l 186 723 l 433 723 l 423 675 l 351 675 l 296 397 l 633 397 l 688 675 l 616 675 l 625 723 l 873 723 l 863 675 l 791 675 l 666 48 l 738 48 l 729 0 l 482 0 l 491 48 l 563 48 l 624 350 z"},"4":{"x_min":0,"x_max":632,"ha":632,"o":"m 398 202 l 79 202 l 90 256 l 546 732 l 594 732 l 503 274 l 611 274 l 597 202 l 489 202 l 458 48 l 530 48 l 521 0 l 286 0 l 295 48 l 368 48 z m 174 274 l 413 274 l 474 588 z"},"~":{"x_min":0,"x_max":632,"ha":632,"o":"m 94 217 q 111 291 157 335 q 203 379 262 379 q 298 379 371 337 l 429 303 q 484 271 517 271 q 578 271 605 361 l 653 361 q 637 289 591 244 q 545 199 487 199 q 449 199 376 241 l 318 275 q 263 307 230 307 q 170 307 143 217 z"},"D":{"x_min":0,"x_max":765,"ha":765,"o":"m 42 0 l 52 48 l 124 48 l 249 675 l 176 675 l 186 723 l 378 723 q 558 723 611 715 q 665 707 712 671 q 795 611 795 471 q 795 299 694 164 q 573 0 356 0 z m 228 54 l 294 54 q 413 54 483 88 q 554 121 607 202 q 687 322 687 468 q 687 581 625 628 q 564 675 417 675 l 351 675 z"},"^":{"x_min":0,"x_max":632,"ha":632,"o":"m 434 561 l 175 193 l 89 193 l 460 723 l 620 193 l 544 193 z"},"0":{"x_min":0,"x_max":632,"ha":632,"o":"m 318 -19 q 230 -19 176 49 q 121 116 121 223 q 121 431 221 586 q 321 741 456 741 q 546 741 602 675 q 657 608 657 500 q 657 396 623 287 q 589 178 534 103 q 444 -19 318 -19 z m 324 30 q 414 30 473 146 q 508 218 533 329 q 558 439 558 529 q 558 604 529 649 q 500 693 451 693 q 365 693 305 577 q 270 507 244 395 q 219 283 219 193 q 219 120 248 75 q 277 30 324 30 z"},"F":{"x_min":0,"x_max":546,"ha":546,"o":"m 295 0 l 42 0 l 52 48 l 124 48 l 249 675 l 176 675 l 186 723 l 656 723 l 632 603 l 578 603 l 592 675 l 351 675 l 294 392 l 463 392 l 475 452 l 523 452 l 490 283 l 441 283 l 454 343 l 285 343 l 226 48 l 305 48 z"},"`":{"x_min":0,"x_max":584,"ha":584,"o":"m 328 771 l 438 771 l 506 626 l 445 626 z"},"k":{"x_min":0,"x_max":596,"ha":596,"o":"m 114 0 l 258 723 l 186 723 l 195 771 l 364 771 l 269 295 l 277 295 q 396 356 455 408 q 515 459 515 500 q 515 518 500 530 l 597 530 q 605 519 605 505 q 605 469 545 417 q 485 364 366 295 q 448 156 546 48 l 588 48 l 579 0 l 452 0 q 349 129 271 265 l 263 265 l 210 0 z"},"u":{"x_min":0,"x_max":655,"ha":655,"o":"m 444 0 l 454 48 l 487 217 q 424 111 350 50 q 276 -12 212 -12 q 175 -12 151 13 q 127 39 127 80 q 127 103 137 148 l 203 482 l 130 482 l 140 530 l 309 530 l 233 147 q 229 132 229 119 q 229 97 239 86 q 248 75 267 75 q 358 75 510 330 l 550 530 l 646 530 l 550 48 l 623 48 l 613 0 z"},"]":{"x_min":0,"x_max":334,"ha":334,"o":"m 400 771 l 218 -145 l 25 -145 l 35 -96 l 144 -96 l 306 723 l 198 723 l 208 771 z"},"U":{"x_min":0,"x_max":723,"ha":723,"o":"m 240 675 l 168 675 l 178 723 l 424 723 l 415 675 l 343 675 l 255 233 q 249 203 249 173 q 249 108 288 69 q 328 30 393 30 q 552 30 590 222 l 680 675 l 608 675 l 617 723 l 834 723 l 825 675 l 752 675 l 670 263 q 641 116 571 49 q 500 -18 375 -18 q 269 -18 209 32 q 149 83 149 171 q 149 216 159 268 z"},"o":{"x_min":0,"x_max":584,"ha":584,"o":"m 259 -12 q 188 -12 144 37 q 100 87 100 167 q 100 315 200 428 q 301 542 432 542 q 505 542 549 493 q 594 444 594 363 q 594 214 493 101 q 392 -12 259 -12 z m 297 42 q 374 42 431 132 q 488 222 488 342 q 488 409 463 448 q 438 488 395 488 q 319 488 262 398 q 205 308 205 188 q 205 122 230 82 q 255 42 297 42 z"},"N":{"x_min":0,"x_max":759,"ha":759,"o":"m 303 582 l 196 48 l 269 48 l 259 0 l 48 0 l 58 48 l 130 48 l 255 675 l 183 675 l 192 723 l 336 723 l 618 141 l 725 675 l 652 675 l 662 723 l 873 723 l 863 675 l 791 675 l 655 -9 l 588 -9 z"},"+":{"x_min":0,"x_max":632,"ha":632,"o":"m 285 24 l 331 253 l 102 253 l 116 325 l 345 325 l 390 554 l 463 554 l 417 325 l 646 325 l 632 253 l 403 253 l 357 24 z"},"G":{"x_min":0,"x_max":757,"ha":757,"o":"m 645 33 q 489 -18 381 -18 q 254 -18 184 54 q 114 126 114 258 q 114 439 230 581 q 301 667 383 704 q 465 741 585 741 q 673 741 775 717 l 748 579 l 693 579 l 702 654 q 617 693 555 693 q 427 693 324 559 q 222 426 222 258 q 222 151 275 97 q 327 44 432 44 q 485 44 548 63 l 589 265 l 504 265 l 514 313 l 749 313 l 739 265 l 691 265 z"},"q":{"x_min":0,"x_max":621,"ha":621,"o":"m 383 -193 l 431 48 l 466 223 q 405 116 331 52 q 256 -12 192 -12 q 144 -12 116 21 q 87 54 87 110 q 87 269 199 406 q 311 542 440 542 q 454 542 476 539 q 498 536 527 530 l 624 530 l 479 -193 z m 488 332 l 514 464 q 491 473 464 478 q 437 482 406 482 q 329 482 284 423 q 250 376 219 284 q 189 192 189 131 q 189 99 201 83 q 213 66 236 66 q 278 66 349 141 q 419 215 488 332 z"},"d":{"x_min":0,"x_max":632,"ha":632,"o":"m 425 0 l 434 48 l 469 223 q 408 116 334 52 q 259 -12 195 -12 q 147 -12 119 21 q 90 54 90 110 q 90 269 202 406 q 313 542 443 542 q 471 542 530 530 l 568 723 l 496 723 l 506 771 l 674 771 l 531 48 l 603 48 l 593 0 z m 490 332 l 517 464 q 470 482 409 482 q 332 482 287 423 q 252 376 222 284 q 192 192 192 131 q 192 99 204 83 q 216 66 239 66 q 281 66 352 141 q 423 216 490 332 z"},"1":{"x_min":0,"x_max":632,"ha":632,"o":"m 500 729 l 365 48 l 486 48 l 476 0 l 139 0 l 148 48 l 269 48 l 390 658 l 265 634 l 275 686 z"},"5":{"x_min":0,"x_max":632,"ha":632,"o":"m 129 3 l 151 111 l 205 111 l 200 54 q 237 30 286 30 q 370 30 427 95 q 484 159 484 253 q 484 327 440 364 q 396 400 309 400 q 262 400 219 392 l 285 723 l 667 723 l 650 639 l 316 639 l 278 447 q 304 449 324 449 q 446 449 516 397 q 586 346 586 255 q 586 133 500 58 q 413 -18 273 -18 q 203 -18 129 3 z"}}}
